<?xml version="1.0" standalone="no"?>
<!DOCTYPE svg PUBLIC "-//W3C//DTD SVG 20010904//EN"
 "http://www.w3.org/TR/2001/REC-SVG-20010904/DTD/svg10.dtd">
<svg version="1.0" xmlns="http://www.w3.org/2000/svg"
 width="512.000000pt" height="512.000000pt" viewBox="0 0 512.000000 512.000000"
 preserveAspectRatio="xMidYMid meet">
<metadata>
Created by potrace 1.14, written by Peter Selinger 2001-2017
</metadata>
<g transform="translate(0.000000,512.000000) scale(0.100000,-0.100000)"
fill="#000000" stroke="none">
<path d="M2826 4688 c-22 -5 -54 -20 -72 -33 -61 -47 -1415 -1408 -1431 -1439
-26 -50 -25 -132 2 -186 16 -32 188 -209 577 -596 590 -586 589 -585 675 -578
87 7 81 2 823 743 666 665 718 719 730 763 14 53 8 114 -16 159 -17 33 -1090
1113 -1135 1142 -35 23 -106 35 -153 25z m794 -1265 c0 -4 -236 -244 -525
-532 l-525 -523 -375 373 c-206 206 -375 377 -375 381 0 4 237 244 526 532
l527 525 373 -374 c206 -205 374 -377 374 -382z"/>
<path d="M963 2026 l-323 -321 0 -441 c0 -245 4 -464 10 -493 32 -172 185
-317 357 -339 103 -13 3080 -7 3144 7 123 26 251 137 302 261 21 54 22 66 25
530 l3 475 -321 320 -320 320 -72 1 -72 2 -214 -214 -215 -214 205 0 204 0
165 -186 c205 -232 209 -237 209 -239 0 0 -670 -1 -1490 -1 -819 -1 -1490 1
-1490 2 0 2 12 16 26 31 26 28 134 149 166 185 9 11 48 54 85 96 37 41 74 83
81 94 12 17 31 18 235 18 l222 0 -213 213 -213 213 -87 1 -87 0 -322 -321z"/>
</g>
</svg>
